<svg xmlns="http://www.w3.org/2000/svg" width="1056" height="1008" viewBox="0 0 1056 1008">
    <defs>
        <linearGradient id="g1" gradientUnits="userSpaceOnUse" x1="265.81" y1="659.24" x2="1015.07" y2="-0.50">
            <stop offset="0" stop-color="#764948"/>
            <stop offset="0.5" stop-color="#7b4b4b"/>
            <stop offset="1" stop-color="#845858"/>
        </linearGradient>
        <linearGradient id="g2" gradientUnits="userSpaceOnUse" x1="-0.50" y1="119.33" x2="623.67" y2="948.67">
            <stop offset="0" stop-color="#511e23"/>
            <stop offset="0.5" stop-color="#562126"/>
            <stop offset="1" stop-color="#633136"/>
        </linearGradient>
        <linearGradient id="g3" gradientUnits="userSpaceOnUse" x1="1055.50" y1="488.49" x2="251.42" y2="1007.50">
            <stop offset="0" stop-color="#d1b79c"/>
            <stop offset="0.5" stop-color="#d4b99c"/>
            <stop offset="1" stop-color="#d7bfa4"/>
        </linearGradient>
    </defs>
    <path d="M 280.00 948.67 L 250.00 932.23 L 234.00 922.14 L 219.00 912.16 L 203.00 900.39 L 185.00 886.28 L 163.00 867.31 L 150.90 856.00 L 138.00 843.27 L 123.61 828.00 L 109.69 812.00 L 99.85 800.00 L 90.59 788.00 L 75.78 767.00 L 66.75 753.00 L 57.70 738.00 L 49.53 723.00 L 39.68 703.00 L 33.60 689.00 L 27.66 674.00 L 20.65 654.00 L 16.54 640.00 L 12.74 626.00 L 8.60 608.00 L 4.76 586.00 L 3.69 578.00 L 1.84 562.00 L 0.47 545.00 L -0.46 525.00 L -0.47 503.00 L 0.51 482.00 L 1.83 466.00 L 4.69 443.00 L 6.72 431.00 L 10.65 412.00 L 14.57 396.00 L 17.29 387.00 L 18.69 381.00 L 24.71 363.00 L 31.71 344.00 L 39.71 325.00 L 47.91 308.00 L 56.74 291.00 L 68.58 271.00 L 77.71 257.00 L 90.52 239.00 L 101.57 225.00 L 113.90 211.00 L 124.00 200.68 L 136.00 189.81 L 146.81 181.00 L 157.00 173.51 L 172.00 163.64 L 189.00 153.77 L 197.00 149.82 L 215.00 141.70 L 231.00 135.68 L 244.00 131.59 L 263.00 126.64 L 278.00 123.61 L 298.00 120.71 L 314.00 119.57 L 330.00 119.33 L 346.00 119.62 L 361.00 120.64 L 376.00 122.67 L 387.00 124.61 L 397.00 126.76 L 412.00 130.73 L 433.00 137.69 L 447.00 143.46 L 460.00 149.48 L 468.00 153.57 L 482.00 161.63 L 495.00 169.88 L 503.00 175.58 L 515.00 184.89 L 523.00 191.62 L 532.00 199.82 L 543.32 211.00 L 557.38 227.00 L 565.24 237.00 L 573.24 248.00 L 580.23 259.00 L 588.25 273.00 L 593.51 283.00 L 598.25 293.00 L 603.33 305.00 L 607.49 316.00 L 611.50 328.00 L 615.39 342.00 L 619.32 359.00 L 621.38 370.00 L 623.30 384.00 L 623.67 389.00 L 623.56 390.00 L 623.00 390.45 L 622.00 390.42 L 611.00 387.82 L 594.00 384.76 L 579.00 382.74 L 567.00 381.67 L 554.00 380.87 L 541.00 380.53 L 531.00 380.76 L 513.00 381.75 L 495.00 383.71 L 483.00 385.62 L 472.00 387.77 L 459.00 390.84 L 442.00 395.61 L 432.00 398.81 L 424.00 401.65 L 404.00 409.59 L 395.00 413.65 L 379.00 421.71 L 358.00 433.90 L 346.00 441.81 L 331.00 452.66 L 316.00 464.74 L 294.82 484.00 L 282.57 497.00 L 274.66 506.00 L 264.82 518.00 L 259.59 525.00 L 249.86 539.00 L 241.66 552.00 L 235.83 562.00 L 230.62 572.00 L 222.48 589.00 L 218.51 598.00 L 210.75 619.00 L 206.60 632.00 L 202.64 647.00 L 198.81 665.00 L 196.79 677.00 L 194.78 694.00 L 193.70 708.00 L 193.36 724.00 L 193.47 737.00 L 194.74 758.00 L 197.70 781.00 L 200.72 796.00 L 204.68 812.00 L 208.78 826.00 L 212.51 837.00 L 216.74 848.00 L 222.79 862.00 L 231.74 880.00 L 241.69 897.00 L 247.42 906.00 L 253.68 915.00 L 262.75 927.00 L 276.89 944.00 L 280.76 948.00 L 280.00 948.67 Z"
          fill="url(#g2)"/>
    <path d="M 733.00 659.00 L 718.00 659.20 L 698.00 658.40 L 679.00 656.42 L 665.00 654.26 L 646.00 650.43 L 631.00 646.43 L 609.00 639.29 L 599.00 635.40 L 597.05 634.00 L 597.34 633.00 L 607.41 621.00 L 615.24 611.00 L 627.25 594.00 L 636.23 580.00 L 648.37 558.00 L 654.14 546.00 L 659.34 534.00 L 665.32 518.00 L 669.23 506.00 L 673.47 491.00 L 675.36 483.00 L 679.35 463.00 L 680.67 453.00 L 681.33 450.00 L 682.29 441.00 L 683.48 423.00 L 683.47 395.00 L 681.38 370.00 L 679.39 356.00 L 678.64 353.00 L 677.25 344.00 L 673.23 326.00 L 669.37 312.00 L 663.27 294.00 L 658.25 281.00 L 652.22 267.00 L 646.41 255.00 L 637.23 238.00 L 629.32 225.00 L 621.25 213.00 L 609.46 197.00 L 601.30 187.00 L 593.00 177.51 L 576.89 161.00 L 569.00 153.51 L 560.00 145.57 L 545.00 133.65 L 527.00 120.74 L 508.00 108.80 L 485.00 96.65 L 472.00 90.76 L 462.00 86.70 L 439.00 78.65 L 426.00 74.68 L 415.00 71.83 L 396.00 67.76 L 377.00 64.76 L 368.00 63.70 L 355.00 62.61 L 339.00 61.87 L 323.00 61.84 L 308.00 62.50 L 295.00 63.61 L 278.00 65.77 L 267.00 68.07 L 265.81 68.00 L 266.45 67.00 L 284.00 57.72 L 310.00 45.60 L 329.00 37.87 L 351.00 29.76 L 377.00 21.59 L 403.00 14.78 L 421.00 10.78 L 449.00 5.84 L 465.00 3.65 L 498.00 0.50 L 516.00 0.12 L 524.00 -0.48 L 545.00 -0.48 L 553.00 0.12 L 568.00 0.47 L 575.00 1.29 L 584.00 1.75 L 588.00 2.38 L 595.00 2.81 L 618.00 5.65 L 637.00 8.75 L 662.00 13.60 L 687.00 19.81 L 701.00 23.71 L 726.00 31.75 L 752.00 41.56 L 771.00 49.81 L 795.00 61.60 L 815.00 72.62 L 837.00 86.46 L 860.00 102.76 L 875.00 114.77 L 889.00 126.85 L 908.16 145.00 L 918.00 155.02 L 933.51 172.00 L 941.30 181.00 L 949.27 191.00 L 960.25 206.00 L 966.18 215.00 L 974.14 228.00 L 983.03 245.00 L 991.23 263.00 L 997.27 279.00 L 1003.32 298.00 L 1007.24 313.00 L 1009.32 323.00 L 1012.40 342.00 L 1014.17 359.00 L 1015.06 383.00 L 1014.17 404.00 L 1013.26 414.00 L 1011.28 428.00 L 1007.34 447.00 L 1003.48 461.00 L 997.33 479.00 L 990.13 496.00 L 986.26 504.00 L 980.34 515.00 L 976.29 522.00 L 970.54 531.00 L 961.00 544.45 L 947.39 561.00 L 931.94 577.00 L 916.00 591.23 L 908.00 597.61 L 899.00 604.22 L 884.00 614.17 L 868.00 623.28 L 850.00 632.08 L 830.00 640.26 L 812.00 646.21 L 797.00 650.30 L 788.00 652.37 L 773.00 655.18 L 765.00 656.43 L 748.00 658.32 L 733.00 659.00 Z"
          fill="url(#g1)"/>
    <path d="M 577.00 1007.03 L 571.00 1007.48 L 543.00 1007.48 L 526.00 1006.58 L 500.00 1003.28 L 483.00 1000.26 L 462.00 995.37 L 442.00 989.06 L 427.00 983.37 L 405.00 973.20 L 394.00 967.21 L 384.00 961.30 L 366.00 949.14 L 353.00 939.10 L 337.00 924.87 L 329.00 916.92 L 319.66 907.00 L 307.74 893.00 L 296.91 878.00 L 289.92 867.00 L 284.71 858.00 L 278.85 847.00 L 274.62 838.00 L 266.61 818.00 L 263.86 810.00 L 259.74 796.00 L 255.62 777.00 L 253.59 764.00 L 251.87 746.00 L 251.53 739.00 L 251.63 715.00 L 253.63 690.00 L 255.65 677.00 L 257.68 667.00 L 262.68 648.00 L 268.75 630.00 L 276.72 611.00 L 282.69 599.00 L 286.53 592.00 L 291.68 583.00 L 296.74 575.00 L 303.61 565.00 L 309.59 557.00 L 324.00 539.59 L 340.31 523.00 L 346.00 517.63 L 354.00 510.74 L 360.00 505.82 L 372.00 496.77 L 384.00 488.49 L 385.00 489.28 L 390.75 505.00 L 396.84 519.00 L 402.70 531.00 L 408.65 542.00 L 421.83 563.00 L 429.56 574.00 L 439.61 587.00 L 447.37 596.00 L 458.00 607.46 L 470.67 620.00 L 482.00 630.15 L 492.00 638.40 L 501.00 645.19 L 514.00 654.37 L 523.00 660.12 L 536.00 668.14 L 544.00 672.54 L 561.00 681.16 L 572.00 686.24 L 584.00 691.08 L 601.00 697.24 L 614.00 701.37 L 629.00 705.45 L 637.00 707.35 L 657.00 711.31 L 670.00 713.46 L 686.00 715.29 L 701.00 716.35 L 718.00 716.82 L 744.00 716.27 L 756.00 715.32 L 773.00 713.41 L 796.00 709.29 L 813.00 705.42 L 821.00 703.24 L 834.00 699.35 L 846.00 695.33 L 869.00 686.25 L 892.00 675.25 L 901.00 670.48 L 915.00 662.34 L 936.00 648.40 L 952.00 636.13 L 967.00 623.44 L 972.83 618.00 L 983.00 607.96 L 991.00 599.46 L 999.37 590.00 L 1007.47 580.00 L 1016.31 568.00 L 1023.12 558.00 L 1030.44 546.00 L 1036.11 536.00 L 1040.31 528.00 L 1046.35 515.00 L 1052.14 501.00 L 1053.74 496.00 L 1055.00 493.51 L 1055.49 497.00 L 1055.46 550.00 L 1053.15 569.00 L 1050.30 589.00 L 1046.34 611.00 L 1044.19 621.00 L 1040.19 637.00 L 1034.40 657.00 L 1027.21 678.00 L 1019.35 698.00 L 1009.43 720.00 L 1001.29 736.00 L 988.13 759.00 L 974.00 780.94 L 960.41 800.00 L 943.06 822.00 L 928.00 839.12 L 914.00 853.74 L 895.00 872.15 L 879.00 886.08 L 864.00 898.36 L 856.00 904.45 L 834.00 920.13 L 815.00 932.27 L 796.00 943.22 L 773.00 955.25 L 751.00 965.41 L 727.00 975.16 L 704.00 983.28 L 677.00 991.19 L 651.00 997.29 L 630.00 1001.25 L 601.00 1005.08 L 587.00 1006.46 L 577.00 1007.03 Z"
          fill="url(#g3)"/>
</svg>